# xmcd
#
# Track frame offsets:
#	150
#	14881
#	32631
#	48214
#	64600
#	82951
#	102787
#	120823
#	139170
#	158421
#	174447
#
# Disc length: 2586 seconds
#
# Revision: 0
# Processed by: cddbd v1.5.2PL0 Copyright (c) Steve Scherf et al.
# Submitted via: dBpowerAMP V4.0
#
DISCID=7b0a180b
DTITLE=James Otto - Sunset Man
DYEAR=1900
DGENRE=Country
TTITLE0=Ain't Gonna Stop
TTITLE1=Just Got Started Lovin' You
TTITLE2=For You
TTITLE3=These Are the Good Ole Days
TTITLE4=Where Angels Hang Around
TTITLE5=Sunset Man
TTITLE6=You Don't Act Like My Woman
TTITLE7=When a Woman's Not Watching
TTITLE8=Drink and Dial
TTITLE9=Damn Right
TTITLE10=The Man That I Am
EXTD=
EXTT0=
EXTT1=
EXTT2=
EXTT3=
EXTT4=
EXTT5=
EXTT6=
EXTT7=
EXTT8=
EXTT9=
EXTT10=
PLAYORDER=
